<mxfile host="Electron" agent="Mozilla/5.0 (Macintosh; Intel Mac OS X 10_15_7) AppleWebKit/537.36 (KHTML, like Gecko) draw.io/24.7.5 Chrome/126.0.6478.183 Electron/31.3.0 Safari/537.36" version="24.7.5">
  <diagram name="Page-1" id="5JjvoEyIZiRvNcbyU6mi">
    <mxGraphModel dx="1434" dy="780" grid="1" gridSize="10" guides="1" tooltips="1" connect="1" arrows="1" fold="1" page="1" pageScale="1" pageWidth="850" pageHeight="1100" math="0" shadow="0">
      <root>
        <mxCell id="0" />
        <mxCell id="1" parent="0" />
        <mxCell id="gmUq8JSCCJDd7Y-n9HPj-4" value="AWS Cloud" style="points=[[0,0],[0.25,0],[0.5,0],[0.75,0],[1,0],[1,0.25],[1,0.5],[1,0.75],[1,1],[0.75,1],[0.5,1],[0.25,1],[0,1],[0,0.75],[0,0.5],[0,0.25]];outlineConnect=0;gradientColor=none;html=1;whiteSpace=wrap;fontSize=12;fontStyle=0;container=1;pointerEvents=0;collapsible=0;recursiveResize=0;shape=mxgraph.aws4.group;grIcon=mxgraph.aws4.group_aws_cloud_alt;strokeColor=#232F3E;fillColor=none;verticalAlign=top;align=left;spacingLeft=30;fontColor=#232F3E;dashed=0;" vertex="1" parent="1">
          <mxGeometry x="321" y="120" width="440" height="440" as="geometry" />
        </mxCell>
        <mxCell id="gmUq8JSCCJDd7Y-n9HPj-7" value="VPC" style="sketch=0;outlineConnect=0;gradientColor=none;html=1;whiteSpace=wrap;fontSize=12;fontStyle=0;shape=mxgraph.aws4.group;grIcon=mxgraph.aws4.group_vpc;strokeColor=#879196;fillColor=none;verticalAlign=top;align=left;spacingLeft=30;fontColor=#879196;dashed=0;" vertex="1" parent="gmUq8JSCCJDd7Y-n9HPj-4">
          <mxGeometry x="40" y="40" width="360" height="360" as="geometry" />
        </mxCell>
        <mxCell id="gmUq8JSCCJDd7Y-n9HPj-10" value="" style="group" vertex="1" connectable="0" parent="gmUq8JSCCJDd7Y-n9HPj-4">
          <mxGeometry x="80" y="80" width="280" height="280" as="geometry" />
        </mxCell>
        <mxCell id="gmUq8JSCCJDd7Y-n9HPj-9" value="" style="whiteSpace=wrap;html=1;aspect=fixed;fillColor=none;" vertex="1" parent="gmUq8JSCCJDd7Y-n9HPj-10">
          <mxGeometry width="280" height="280" as="geometry" />
        </mxCell>
        <mxCell id="gmUq8JSCCJDd7Y-n9HPj-8" value="AWS CodeBuild" style="sketch=0;outlineConnect=0;fontColor=#232F3E;gradientColor=none;strokeColor=#ffffff;fillColor=#232F3E;dashed=0;verticalLabelPosition=middle;verticalAlign=bottom;align=center;html=1;whiteSpace=wrap;fontSize=10;fontStyle=1;spacing=3;shape=mxgraph.aws4.productIcon;prIcon=mxgraph.aws4.codebuild;" vertex="1" parent="gmUq8JSCCJDd7Y-n9HPj-10">
          <mxGeometry width="80" height="110" as="geometry" />
        </mxCell>
        <mxCell id="gmUq8JSCCJDd7Y-n9HPj-14" value="GitHub Actions Runner" style="shape=image;verticalLabelPosition=bottom;labelBackgroundColor=default;verticalAlign=top;aspect=fixed;imageAspect=0;image=data:image/png,iVBORw0KGgoAAAANSUhEUgAAAM8AAACzCAYAAAAuYUjlAAAEDmlDQ1BrQ0dDb2xvclNwYWNlR2VuZXJpY1JHQgAAOI2NVV1oHFUUPpu5syskzoPUpqaSDv41lLRsUtGE2uj+ZbNt3CyTbLRBkMns3Z1pJjPj/KRpKT4UQRDBqOCT4P9bwSchaqvtiy2itFCiBIMo+ND6R6HSFwnruTOzu5O4a73L3PnmnO9+595z7t4LkLgsW5beJQIsGq4t5dPis8fmxMQ6dMF90A190C0rjpUqlSYBG+PCv9rt7yDG3tf2t/f/Z+uuUEcBiN2F2Kw4yiLiZQD+FcWyXYAEQfvICddi+AnEO2ycIOISw7UAVxieD/Cyz5mRMohfRSwoqoz+xNuIB+cj9loEB3Pw2448NaitKSLLRck2q5pOI9O9g/t/tkXda8Tbg0+PszB9FN8DuPaXKnKW4YcQn1Xk3HSIry5ps8UQ/2W5aQnxIwBdu7yFcgrxPsRjVXu8HOh0qao30cArp9SZZxDfg3h1wTzKxu5E/LUxX5wKdX5SnAzmDx4A4OIqLbB69yMesE1pKojLjVdoNsfyiPi45hZmAn3uLWdpOtfQOaVmikEs7ovj8hFWpz7EV6mel0L9Xy23FMYlPYZenAx0yDB1/PX6dledmQjikjkXCxqMJS9WtfFCyH9XtSekEF+2dH+P4tzITduTygGfv58a5VCTH5PtXD7EFZiNyUDBhHnsFTBgE0SQIA9pfFtgo6cKGuhooeilaKH41eDs38Ip+f4At1Rq/sjr6NEwQqb/I/DQqsLvaFUjvAx+eWirddAJZnAj1DFJL0mSg/gcIpPkMBkhoyCSJ8lTZIxk0TpKDjXHliJzZPO50dR5ASNSnzeLvIvod0HG/mdkmOC0z8VKnzcQ2M/Yz2vKldduXjp9bleLu0ZWn7vWc+l0JGcaai10yNrUnXLP/8Jf59ewX+c3Wgz+B34Df+vbVrc16zTMVgp9um9bxEfzPU5kPqUtVWxhs6OiWTVW+gIfywB9uXi7CGcGW/zk98k/kmvJ95IfJn/j3uQ+4c5zn3Kfcd+AyF3gLnJfcl9xH3OfR2rUee80a+6vo7EK5mmXUdyfQlrYLTwoZIU9wsPCZEtP6BWGhAlhL3p2N6sTjRdduwbHsG9kq32sgBepc+xurLPW4T9URpYGJ3ym4+8zA05u44QjST8ZIoVtu3qE7fWmdn5LPdqvgcZz8Ww8BWJ8X3w0PhQ/wnCDGd+LvlHs8dRy6bLLDuKMaZ20tZrqisPJ5ONiCq8yKhYM5cCgKOu66Lsc0aYOtZdo5QCwezI4wm9J/v0X23mlZXOfBjj8Jzv3WrY5D+CsA9D7aMs2gGfjve8ArD6mePZSeCfEYt8CONWDw8FXTxrPqx/r9Vt4biXeANh8vV7/+/16ffMD1N8AuKD/A/8leAvFY9bLAAAAbGVYSWZNTQAqAAAACAAEARoABQAAAAEAAAA+ARsABQAAAAEAAABGASgAAwAAAAEAAgAAh2kABAAAAAEAAABOAAAAAAAAB0cAAAAaAAfV+gAAG/kAAqACAAQAAAABAAAAz6ADAAQAAAABAAAAswAAAAAgHnqxAAAACXBIWXMAAAsFAAALBwH7u6rLAAA3k0lEQVR4Ae2dB5gUVdb3T0uOQ84gSQRBQBQEwYw5Z9ewruu6+qmbXDfvu7rfZjfvu0E3mNacFZUgiqiASlYyQ85J8pDt9/efop2e6ls9PR1membqPE/PdFe4VXXq/u+J99xIFLKQQg6EHCgvB4qOKO8Z4fEhB0IOeBwIwRP2hJADaXIgBE+ajAtPCzkQgifsAyEH0uRACJ40GReeFnIgBE/YB0IOpMmBEDxpMi48LeRACJ6wD4QcSJMDtdM8r9JPO0Rod8eeqB04FLF9B80OfMbnkNlnbK9b6/CHp6vD8NCkPv/ZFlLIgWxyoEqBZ9/BqBVujtiCDWaL+Czj+579Znv28QFA+/ivfIl6dczq1zNrUNesId87tjA7qo1Zn7ZmPVtHrWn9SDZ5GLZVQzmQ9+ARGFZvM3thltnEhRHbssNs506z/UUABUmTCkWQPrUbmDVuhBRqFLETupldcXzUjm0fsdqh4poKC8NjHByI5HNu2zqA8oe3zMZPR6rs5u4BUlYIwVMLqTSwj9k3zjA7oUtWWg0bqVkcKMo78BzEdlmy2ezfk8xG8/kMdSzX1PcYs3vOMevf3lP1cn29sP1qwYH8As+ufVF76eOI/fd9szWrEDQAqUIISVTQMmqXnRix6wdjIzWrkKuGF6naHMgf8Kz41Oynr5vNXISKhk1TGVQLJ8NR2EN3ocqd0asy7iC8ZhXiQH6AZxpS5nvPma3jf0p2DZKiWSuzIb3NTulh1hJHQFMcAs351MIBsG2P2fa9Zluxkz5aYTZ5gdn6dak7GBoUmP3P5WaXDqhCrzK81YrmQOWCR7GaSUvNfvKi2cY1SZ4dsNQmVtO4idnI/mbXnGB2NK7nVD1liv2s2mr2xlyz5z8y24KUOwDAkqmFDVHd7r4Ir9xAXN+1ktxbuKumcqBywTNmvtkvXzHbvD6Y/wJNP1Soc/uZnd/XrBVSJhPasz9qEwojNnqO2ZR5ZkXbglur29jslrNR4042iwDgkEIOxHGg8sAzeRkj+xNkCeBZC6JGzc2+cqbZhQCnA5Igm/13B2rdu4Vmj042mwuIg9RFxYe+danZzScG3WW4vYZyoHLAMxv7445HsEk2BLN9IOrZT1GbupIdkKvUGqlzWwm2PjnN7J9vmB0iQ8FFkkD332B2NjZWSCEHDnOgqEIzDOirthY16Vev0Wk3ul/CEdzRsOPMfnGJWRs6bS7pCESZnA23jSCdh+v+DQDtx8ngp/27zH7+qnfsoE6hCufnT039XaHJKTtRlf74ttkneL9calIt7JvLTzf7NWpSroET/8KVSPpF1LJvXIxTAknnos1Iy79w7+sryY3uuqdwW+VyoELB8wF2jlJtXDlpyj+7aSQuaz6SBhVN9ZA8Nw0x+8FlZGS7ro/YnDHP7KXZFX1n4fXylQMVBh5NG/j92KhTLRJzzkN1uus0s0YEKssipfAoG0E2SzZJatwlOCd+dCXxIsd9yCZ6BOmzMZQ+2WR7lW2L8Tb3pD7+13eJtSx3+8sG0GG/h0tYdkcQKSa0EAfDH8ebTV9sdnB/xGqhbg0/1gOdphzUcjcf1KRzuwB0MW3Ow33+7JuJsaBdxIvuesbs6VvMdGxINZcDSbpr9piyZJPZExPc7RW0Nrv9dLPWSZwDWzDiH/7Q7LFxgAa7KUYIM3t7itmHC82uGkZGwEDm67TKvFNLhbthsNms5QCWdCG/fTZnrtnrfC4C9CHVXA7kXG2T1HlxFvlqRYlMlmftHDxrQzon7ott2YWq9B9iMY8hBeKBE9uv/7vJGHh0jNk3kQj/4thsqFXdWppdjQ1Up2H8lQ5/56GenkqAlYl4IdVcDuQcPOt3mL2PmuVyErRgVueXkRia8RlEi5FaL34YtYN7go7wtqv95YW4m3GD3/Gk2Tg8epqWnS4Vq29IlkEBsZ0lpBPNSpZSlO6Fw/OqDAdyDp4py5gJipvXRTedataluWuPt01Sa+pKshC2pG5cCGTz5pO98G+zb7+AdEBypUtyXnznLPfZO7F93kGlO4TzIqSayYGcgkdqjdzTewky+ql+E9QibJSkBHpWo5L5bQ6dE8FZkIw0iW48KtzJv2RiHf81K1VOh/LSMe3MjumTeJYk3YzlBH23J+4Lt9QMDuQUPDL0F0nqODrteRjkTVIoxKFEThcN6Gt2LB+XSzn++D107j+9TAAUe+glbK907JSvnOIG6wo8cgJlSDWTAzkFz1ZUqDWONBx1eE0ryIRGHGX22ytRzS43ay+HQxLN7jMk4BwCnL8CRHc8jXduhVeiKtXrD+0atRatEkFcBHA01SFc4ShVTlav43IKnjXb8ITx8VMLPFntmvq3lv93xwKzG5FgD91sdgHS4Yi6Sdqg70sKfTTT7P89BJDGeUmhSc74fFeDOhHrc2QiOqW6zVmbnjr4eePhlyrLgZyCZ+Zq+JI4YFvPDnjYshRh0szRI1uQ9XwZnrbb+N4NVa5+kvfB/ewFRE+MNrvyQeyihWWrcpp016+ju825eNxCp4GbN9V9a07Bs3iDm32925NNUMe9L92tkgun9jB77nZUswvMOnd12ynx7a9bwVwdpNDvJzC7FPssiATQXm3d9tXaTaQJfRZ0Zri9OnMgp+DZ5vCyKQFU1Wlql+EtS5fpjbGnbh0OIK41+8LZgBTVLhkpX+1ZwPMo07OVfxdELRpQfdSRBbFnX8QlXIOaCbdXIw7kFDzbHeBRsUF18EQLIntcLVazcDHfcybq2R1mgwcll0KH9lLfYBaeQYdzI3ZXdVEzVcLXT/s4N3QY+LlSM37nFDw7HSk5tVHXsmXvlPWKlGiq+tQPXsdUAyRR8zaAKOCJN6JiLlVMKYAacN/1HQ4JefIyyWQIuFy4uQpwIKArZefO9zrAU4cOmG17p6y7FYiU6PnYV6m+MyzqDLAeAgSqa+DwbxQ3rwlzLsmjE1TqKqSax4GcgsfFTqk4QR3UdXw2tzVB7apXO5L1SjhhZZ1svqWq01aWHMbuB27YiBUNMMjj6QAj/N4D8Vty/13Tv5+YRs22qV5hRVe9NgVuC3BxB9li+4jpaCmTBOKEZg0TtoYbagAHcgqeJgKPz444CHAqCjyacaqs7O+RIFq4mLeZROR1aEep3dbBb1z3vBcQ+kmgQ5iFVAM5kFPwNMO1u9bH1M/ohDsYwdWPc9Xn5HJeiOfs6elmo94niOmSGHH3pcKK5w1MATxITT/Vk7TK1YP4Lxb+zisO5BQ8rR0xFqlMa5BG8lDJCM82KVFTddjeIA1nPdF/l4oWf01ld194Ig4Fcu2Sle/dgvOjyOF6b9wQB0TOhoH4Ow2/5xsHcgqePqhCEx1PPGedp7plEzz7AeMrH5Pn9i7TGBB3ZUkbTWno35dshNPMBnSgUDwSJIiUfrMYSSa3tJ+6tPVqKfi3h7+rPwdyCp4Bnb24in/0X74e8KBaZSE3tPgNLdvCqgajWJ7kEyQNICqL6iER776QugcD3LEb//mynT5e5d/q/dYzZqPwiLv1cGs+cyCn4FFR9qZkUG/HaI+nTxnFV6K6ZVLYUNJg5VZsGgDzGOKtiO9JCbukIaAZ2sebHapk0lRpNxJnwcrEo1WDQdJVuW8h1TwO5BQ8zXHhdsSD5QePpMNTU1NcCzTAGJ+40GwMwFm+tGy7RsXajzuaXLchZmf1Ln9nf5trbduc2DmakKPXFpsppJrJgZyCpwXgOaaj2fwFiR18/AyzDWeX3fmCZpuqTkEy13Px6wR4rbFnbj3d7Mxe3rXKW2tNhRUfes99rSOROu1C8NRM5PDUOVU4lBZzYjdy2VCX/HSAKQDPAKBkJBdwdySXMx8tScxGbWpOzzWA8+U7kTjHM9sUA6u8wFE701ZGbfkyfStNmng3tCdLnzierfSR4a/qyoGcgkdMO7ELc2tIyHTRE+96K1+79sW2HY9B3gbpkSopZtMbu+bB26L243NJBkX6pWvQ7yBn7TdjQLADqAWobCO6hzGeVN9LdTwu5+BpRaD0jGPoZI6Yzq5tzP4EQEqfCaLuOBxuGI5XrAz1SMZ7Vzrz1y+mnvQXzU7qhguZfp8uycP27Exc1MvdLfQG1P1RSUOquRzIOXjEWtV+bsRI7Sc5Dt7D6J+4JLggh0rfXjmQ6jcXkUNGkcQEAiAFbL/xHKrkfIGV5E7yFvdNOK6cGxbhIXwBp4arSqkGgusIrGYzTlXO2wsPzwMORKJQru9DV3hiOuuPPu64Ep2/E6qdinh0cgAsdoYyElQj7VXANm4OKT67ota0UcRG9vPWKlXxRAEtG7QLSXjPiwB7WqKjQ+2fe7JXMyFZRkI27iNsI685ULHLKl72D3LOcPu6SCsl/Ad1qyGGeGWS1LXfTSB2NMp9F00pQfXmPanVnHO3EG6tJhwoqhC1Lcase1CtXJ437Z+NNPnJa2afOibQxc7P9X9lPTyFhPzv6+4ryYP3tXMjKRVrdLcQbq1OHKhQ8AzEwL4IWyGovtroSdRTG+sVEqxoJmsW6b+4/h9fdatqsnOG9WdRXzx5IYUcEAcqFDwqnH4rBv1AdUCHJ0wOBAHoJ6hMqsRZUSTg/OpNwDOGnLud7qt2wS779kizVri+Qwo5IA5UiMPAz2pVEr32AWqlrffvKfmtzIAHbvLm2OTKMFf2gNby+cHLlOCdUXJt/zel9zxwG+7vrv494e8azIGKdRjEM3rBRrNb/kPJ2w3xW0t/1yzNq08jzkNOmrxp2UrAlPdvMxkOY+azwvVob3Gs0lcu+aX40o+uMLsCd3lIIQfiOFB54NFNTFlu9guM86WF/KBDu0jBz27dqHrTl2BrLy+LORNJtOJTswmLiS3h9ZsOeJItmtWiLXWtzzK7/gTXnYXbajgHKhc8UpvmriP+8wbzZea5DfXYCyou0EEcSJH9s8hYUGqM8spSmQK9FQ+eVkaYAGA+AqifAqADe2g5ALC6Zov2SBwCsyOPZmlFR3ZE7L7C/zWWA5ULnhjbN+8iM+C/VOykc6dEOBuOoEN3xHs3rDdGPClArbBLVMWmDi4QgWUL4NiEajYdsBQuZ2bpgcMtJwFM7NoFxHIeuDlSnH7j8GvEDgv/12wO5Ad49A527InafaMjNnE2JZ6oQ5BMKuTqnWnx3qNREX97OasttMzVVcJ2qwkH8gc8Yqhmh76O+vbfycwBWkS+G0HLiiBNeWiLFLt2KJ/jk9czqIj7Ca9RJTiQX+ARy2QHaYr2c7NIzAREO7bklpGSNmcCmBtPNOuLnRMme+aW39Wo9fwDT4y5B5BCWsn6xdlRe+Rd7Jd1WB8p2Cux88v63xDnw+XDzL4IaFpjM2UrqbSs64b7qw0H8hc88Szes9/sTdS4UUijhauJy5ARcABgqbyUvzJP/Hn6LpVM6UB1iBnV49O1DZIGb92lA3AyNPIfHf4OOZAyB6oGeOIfR9MF5m80m0d2wuPvU0BxZfxe73tdQNEbw795Uz4CTCtqKbT3lhtpWUmAkdDUIKDVuI84ImqN6kaqnbQ7xEOqnvduPJuS5I00aFVfN38Rj1i1qDGZzYPJM9NnNvUF1qxMdCa3pKzU98/1ZnqmU7cgGxwRSJRFoQV/FwL0TbjjpYbuo2NFCE5prZ+GPEsHMhh6tzM7FoeFZs1WFfVRWRoKCegZP+EZC/mv33rGvTx7HXpWA56xKSGEzryPqwYSWiBLRKGE6kJVDjylGJ+Im+Ld+/HSqYJoZQBHa5uq3O9zU5hezncVtld9bmcxRu5faqVWy6vNm2gDeK4fbnbZsayeB7DylZSl8cB7Zu/ORcoAGMXQip8ROzWBeEbF5J5+l8Gho1eh9fReCUdVyQ1VGzwBLN+108vKHnJkwAFZ3qxReCOSRXOBHp/I6JtqRjjnCVRKEZJXfiX3/avlZHcjie46m+LzxxxegjJgkMjyYyRtToORKrP+7zukNjE4aDGwlIhnVMhhz3aySfjcOY90qx5R+9pZETule+VPfkzpGQIOqpbg2U9nXLbZKyafa517O9eaUEjREUbixfwvy4ER8B5Kbd6Mmnfff4l5oercNIwKRF09+6HUQRX4Yy1B6+dmID3ej9r2zZkjedmSiH1vHWlWx1MLYojZIFKuqiJVS/BoNJ+xEh2cjp1JSd+yXqjUl38AmtEfAVRUtKwSI/ZUeRdXRe2a4RG7DXWuMqaoL2EQum+U2awF8m5mDpwYjw6g7mnu1vRlSKMzCRvg/TwCFbYqUbUEj17AvKVmq7flDjyak3TvaxRF/NhTS3Ly0gHQDkb6h8dSXRWV59eX5uQqgY3OWGX2zaeYvoGUyGaMLXZBSekNq1FVX/byEDVRMpOM+Vi7FfW/2oJnPzbIMzOiNqhT9kbL2EvREovffBYdHv09GckZoI8KzPfBO9i5JR6nZnjcOF9rFK1kVF+yBu8U9/oZ24I6qMpfvfqOVz3oPzfm3mMFZm0mwPn642SgJ5lvpWcvjqPVMWvZirzADjwfz6i5V0rKXYONtIJnLFx+2EZSww6SPfTAG55k1fSPqgKgagsevaMxH0TsK9gMyZZLdLzLpJvkTfsxakwy4GgOUls60ukY/CN7m6nqaZDtpSngH60we2s+pa74bKWzOT1z3NWMT5A+SKFvnq7qPUlvM6Odizaa/fS15MDR7NpuPNeZ/czO4Rl7tZYL3n3Z7ST9fveliM1YjHcOie0aJKTG/RkAtWmCo6SPu51821op07CzxYS7X4jamPcC3tjhi2gBK5W0Uv2ETEmVTX/7FgsDvxncUvO21JEbRAbDQAKzbYI7lKuFadhpz+CxUxH8fTtdR3iVU+84j1y8IbmJCWlw+M4LzH+aRR9HrXJRe0Bz9YlevTzV2gsCTfy5u/fh2l6C02Gqp+oGDRAt4d8vrjY7pUf82Xn5vajWfVBe3loKNzWWkbrQESSNP3Uj6lFtRrMTUJtSecnx58Z/lzv6+dl41QBPkJu2TUcW2boEDxKqhwrLl/d6mtw3tBsqEEHFD+lon89BiruRg7iI522I2tCjItaOa2Sb7n3d7B06eBBw+iBlfn8tEudorw54qs9YF2ksDWB4T95HYwLcy90Sdg/g/WA1EhupXYB0y2M6UMX8G+VnpUY4xV7ew42cCS0DhM98FCwRBJwHv0RpKjpXJlkCWt5R66M+dkdwfW65i//2TiZP4z53Bp691+FVkFQYrvu6mYwIJGq6mQLyfn7tVCoRXU4Ge0CqlArD/JX7UIZ9PlO1B4+Yr2kNfxiPncJLSYeK5xnNwbhHGrioSUsCm1/CYGZkzRapiPzfbyFIStsumoR698Zc1570tu1CrfrtmxHnyXIKDD6OkmAXZEf9FfC+iNp56zlIIYd0kdSbOCdqExcDZOcd5cfGGgEevYFCXoRqJRRikJeXFAh99oOoc0QuADC/uy67TonY/Sl4eNtIJBlqp5/UwX7L86jTZ4PeY2BYtMLdUvtOZt86E28hXrRskVKnvjyUVKQRtOjA7M5PIzYOtVy5cvlKNQM8cF+dbRbS4+tPEnzEDVseGrsoiss28Q2riugNJ1PPrXt5WnMfq/QX1XKQGztGmpinkleDUQU1+vtp0wbUUTp9pqRsby0dGVTwUUHMTJdTUaLstqKoKfM6Rkoc/TZtd+ka21LyX+/rg0W453eUbMu3b45Xkm+3mMb90M9dnU0vRGuYfu1RUl9QeVLVqR+ZGHEa0J07e67oTNYBkiNiFKA++w9RO/OXjMR/M5u0DLAf7mTNUGuuGexWbxQbenEmeXE8Vya0fOthA97RztEAV0vESFJkQmf93uy0X0bsxod5B1tKWpKN903y+Fzva8NarcxXcmy+fauW4GmHmjGoPy+EkdtFO1DdfvQkq7696a2orVmrQbSUY1ctT9yrWM6peIS6t0rcl+oWFZZ/+ANsiadJLF0TMcU6BO5vP+HdV6yd03p685Nivz//D8CWIX0yKU0sjCrhc936z1v9/IvKff3i0syKTcq9f98Y4lfcpwLXsz6mUtJjXC9OoiiBt1evzy9b8oWbm7Cg5Ge+fauW4GnZhA54FsHJAbA7YMTcv5tCI6OpWvoIhvl7BCBXo1+jWvhJAUwXNeAaQ7qm73WS1HuRWMqD41HV6FTxJHCPX6Bu7ZEqpV59QuxX6f+a9hA/kpfeW/YvSa1PyHLQrFw/9eyamS2nmNHv3iapdFzpljfzfJOXlWxrAkhPwfXteldzV5TwoeSM/PhWLcEj1vbES/WzC1GrhrtVgmL2817WAI5/jjK7+ynUh+eI4+CO1gQ2SQXR1OXF/xL+NCXGMqBDwuaUNkglU5bynzD4d8apMPEnHzxUGvVn9IqaJIGfigQe1K50af8BVLZV7rNPQhqkW+J4G04WDUov8ZG6HE+Cw8E4TCj7ok87XPON44/yvm/bErENOxO358MWlI/qS0e2QO0AQG15KU8xwgeVsooClI2MvhsBzZRPkCZ00hYFfIhDLGGbi5TH5ZrSrcLx4zG+VQtbgcRj2gLe0jiwF5A4vwCoriUbdS1V9BnZp/RVmzeM2FHdmLnpU2MkMaYUsqQ9z+i7TOkGAn7tRtoWInX9pLoPSity2TpKih0zL2q1MfbOR3VtjRSOJ7n2H0Idfe4d9zNq4Dm+U/wZZl1bkpqDCqw5TfGkmNO8dbxD3zXij6ms79UaPGKqcsDuHkk0nM710FuoZrz4wOABo+Ghvd5HSzgG4Kb4XXXCbRsPCg2k01eafRdQrD88kj/aDGkGeK8e6AVOpSLJUfHLl92dSg0rcPidS+lMAN9P3dskgkfP8v5U7+M/PpPfdRlAGvPx0zjA+53HmIJR5EH1b3T6B76EFAYMcpzIa/jENFKiXoPNfPeT3O5/ug7NAKDEUwHvqQnOERdJ/ctHqrZqWzyzGzBE3HaSF4+RI0Eje0ZEJ/GPhMrdUl7a+rhRfM82Fst6hc5E55YaKODcP4rvANNF9QD4LWfjceMeXepSBwBbUVS3XjQhmXUHqthPno8WOzZi97Fri9ntD8tGI5GUTv7PSaTvMIAkAAeeFQD+39zgSbTY+bH/jZF0jQCQi5ShnY9U7SVPjOnqjKcdxcJaHXEN04lHzaQKzxK3oRw7J9n/5j4AFmE7rJHtIREUR4qd/OV17ArUwmmL8DptjNsZ91WewZuQkF86kdR8x4ivQ1sjlSqK6tTBPe4bWtfgISva7Umc+PvYxXP/nEGiN9JnGiByqcfNAM49SOEze8WfWfK9AderH9AbtzmcGSVnVt63gNutvBvK9ZVVDF6Jm8pBm7qCXK0p6NR64Q4VI9m97AIs8VSXjqaYhYvkoh0/GVz5DOfYsXJ733mJBxwFDoNIbt+KokNIyviApq4r8NbiXtlVmhgwtuCKnszAEPSMd59nduExnmpX+mTvl9Q9rXjuokYAKx/JN7bk4y1m/56km0vturAfaTe3UlDxXtbhucyLNSjXSsayJIErcFd8N3SWTXFxCm0rAJQXDkBqNHPfb1CnitAZbzgHtXKEV6rJfba3dVWAupfsnHT37T8QsYO+zqzVKK4/NYAv8CToGTU4KFMiWSljOS6k+rqoNbzNR+KxQtL0AWX63n6yB4ol6PHz1/MdlesV7BXp9X5aiz0TT1JmzkKaLT/T7N9jvYBg/H7Xd62ufRGgUX0Cl1fLf87qzf4t3u9G2ELNeIZEhcp9fPxWecY2IjH8cZ79dGSpon5Sjptq0I3+INjpEX+OVtb72vll35smBaqgpYtahOBxsSW/tinbtwOSQ5+Te3j3tvpTMnwd4FkMuJSUGe+Rqoe0+uowgMCpmlacbNU59fTzhpp9A9D67ScXV/ahK81bkbhHUvIqnCHXHJ+4L5UtAsh3n8clv7j00XKjq5Dhyd3p+HGolNT+AZKyFs86apLnmSx9ZskvSeHbz8aW4znLImUcbPYNSMXncL2jcffnI4WSp4y3Mrgb4Pko8aBNGMkL0PM1yS6eNOnrK3Rm2S5/fDkYQBcCmu/TsVIdVTXXZs+2uF58+KL1sUOO7cR6Qg7Xdvx9BX2XrXECz+gHjxwf7wIoFcKv7bus8u00FVyDx1vYjAmeNS4ml/vNZ3j2ZVlSVdkWi+DlTnjqp8Y8V5c0n83fVrZ/a5AMKQkHNLPTRbtR6Watdu3xdHtNaLsddUWSwU/noKrdf2nqwNH5z073t+L9bood4o+ZuI90b1V0f0BnpAv//fQx4Ama8qBJbb+52KxfP/9ZtEWvuo7B4XaeM5VyWbJ1lAblAuFRDAxlgS/xDipmSwieMviswhYt2jI0+khqzdg5Xnkr367in+qUNw3BnrkAL1UHJBEqjCa2nX8KBUTOc50RvE1u7olzfMO/DmdTp1aZzbNRq0diM7VyqEZys//8jWhg1rak6yPXR+204ThM4JOesSn3c81Z5BaOdMeqXE85BxV48uzEPQLhab0St+fLllBtK+NN1BYITonYH59LPHDhUub7FzLKYm+4RkcVHbkTsJxxNJnL2E5yZQ9oH2VuvgMIic0Xb1Gy6uOoja6CIKoBfR4jf1B8JKDJhM2SXP27MaeHTuz3mI39KGKXDCyxAf0nN2C1h79cwYLMa725N5JIgyXJUnxEBY//PN6t3ha0jNqwHik25L+xCvgdSp4UmHxRf6SGQ++W9PnX23jYAEYQCVR923kxDtVmLg9w5AkbtxCAfuxWaZo0j2alTJOKyo/o4c68kBfu/jGUEt4U9IReMHUQ6pXiOEO6pA4ctajk0U/mu9s+vlfEuiDN8pVC8KTwZrQI1oUnuA/cxIh783+iJm9Ytkn5db8nO2G3w5DWta4/NVK8Anim19XYfnbvqHUgC8BFS5eY/W0iBj2DRTbp5U/MHkXquGwdqYBn9cltfbpMnyUETwocVJrKFYNwYTOqumjT2oh9/Xmi7LvpCK4D0timNHzVT1MlGRf1xBa4A1sjW6Ss7a+ejtRAFfSTVLm3pjH/aaq3QJd/f3l/S6J+uIIVF8YF1PgGzSf2JrOcZ+Rr3lIInhRfjRwHlw92T4dWE5PoXN97CZfrRgCUAYJiHeuOJ7Aj5rhvTvGTe4i1uOws9xmpbb1Aahf2jYuUba7Y1V8metMtXMeksk2Z5W/MM/shg826Ve4zGuPAuHVEap46dwsVszUET4p8lvfsyuPoXH3dJygZcspML+D4DP/3xM/2cp+SsFVzgB4g8Pj958hwwNZxkSbEXTKU2AxGebZJz3jvBXjvurpbVtD3v2PxpNHxNWcpNmHQfXTiVtlN9wLAn70YDBw93z0X4VjpmHh+vm2pluV2+zKCPvxFjHwM4WyTqrlc9ufgGaDSM2rTAY7shFp1Bq7WnmXnrO3aG7VRjMb/nMCovjHiVSR1SS/aPu5YatBdlTglIpvPqQIk9zzJWjybApQmNtdrhFcNm+SrJycGil338keeTavlbd/itnF0jlzTd1/pZST4M7pdbVbytqq3oG88w4JqVecSPLq+Fs665u8EEGXIuzp53E02wUs3ElVoWHdmnjYmB62BV7Xn0yJG321eFP99DGdlXiclOmzLdritb00/myBp+3E7pXY+Po0MideC5x7FHW5tO0btguMixeuqanZtcz7KU9P8njU4PUbzfDPxGCYjJY9eDBB/eG7plKdk51TyvhA86b4AlUT62evkfxUGj6Tptu0/T1kKx/clYHlxZgFRf7vJfsv2emoGauSbyVdLSNZGqvs0OVHFD+86lWAtwKsiVISgDCkdDqia5y8uoXA5XrjAqQvpNOw7pw6d6WK8ar+9vOKAo1vQ5EGlGN1/LZIOqZkrt5ee764LUBPPrFLAKX5LIXiK2VD+P8XBT9JufnUpVUivcAcYy99q6TNUA/u7gEZZzFq3pjLopG542L5AWhEqlat6T9r3hBraHXvwr7cwCRAHSHx2etptVvCJYXpOBgzn/RdX0NF8nOHdovbjVyJWuAyb5gA7yrCFgi4rKaYJcn2Jcfz1msTKNEHn5XK7lgb5DYOEshB+PSpqu8juTraSXbJ70fPVxpFz/onEsUZ6FYqSHZ/P+0LwZOnt9OsQsSe+7C3g9CK2wqK11GbGWJZ7158v5r+kOlRd9H6tyzPgSC8ge2JXRnqhM09IatylA7xyWq/M8ZJil/KMO3fwjDgHyqKGzXm+Zqw/1NObe9SnLYNEHj1fWffv2h+Cx8WVNLcpEfQ83OSq16aZqPP4LN6Id24TLlo62H6SPPchlaTy1cMJUK+O55nqQUdSkcZ+qIHd+a94S75Sk/qRYlvokn7eki0Leb5FPOeqT73pC3v3ec9Yh56lZ1RhjzYF8KUvz9eeLHAAVNVBE3s3IXhinMjif83VV5BPH002U8kmBRQVXZcXSySAaDZmQ96Asq01slclUj28oV29j/L6NI1a/1X3QLW/9TyK1eg5VVYql2uoVhbfQvDkmPMCkgpnVGfSSnitq/kzut5fFRvvXI8Qbgs5UDkcCMFTOXwPr1oNOBCCpxq8xPARKocDIXgqh+/hVasBB6q0w6Ae8+ddpPhkmjFKV3Npb9Nan8rCXk28Rx43VaLZjata8RuVkJVrWzXbOuLK7YgLtwpkEifwQh42raW6i2fdw7PtYyrGvoORYm+bCuzLHd+Qj1Z9qC4u6hgTqjR4OtPpXHRI7lI+lUEC7VyCh6987NUi27iN4u47cVkDnIN0rkN0MuWJ1cJ9W4dPfVYjaNE0Ym0Aj0pAXUA8pBuxnmxPdMsmL1TDWmv0qG6dlp3UDNq9PNveA9Fi17zc1bWOiBaX11XB+PoUfutLjOfoNpQ0Jqal4pDVgao0eDRiu0ixFY2CFUkq3Ddnndk/3qUG2XxGYDqUa7WA2D0p80CfPSBJKycsAVAfArgn34vayP4Ru+t0FqyqpHy22D26/q8gGPoy97lqK0BB6hxgBbsSKc9DHKZDbNd7MA0W0KadUZu0xIv3nNE7Yid1TV67uvikPP9TpcETFHjbxwvbwUjfsQKYL9BoCcFHP6SG2Zt0JubppEW085nue3PEXnybtXw+MvvWJcwaJZKvIGplqjx6Rs1yHb/QA8ChzwSSEqCk8rwHOUdBYg1qz05jKZIVnpTt0arqgqhKg6cj+VIu0iK367AzlD+VS1LWwDuLkTYTSMNZlN0raZHf+5+hltp8Km+e4s3WrAybSNkCWorlzQUs3LU9Xsqk/7wCo+pg/xPpdVL3SHFhw4pceyj9Oy99ZpUGj5YJqcPMzAOM/PGkRW6li2sxq1zZDjuRbFrx7WGAE7Qob/w9pfNdat/UWWYr6Gh3jqSGwsB0Wkn/HBVcHA14Jy+J2u795ZM0qVx1D8uYvM2gsw6bUBI23XrbqVwrF8dUafBInemCbraksDRrVKhPRrtqIAepdqXPKN8vBk77w1tmL7zn2S2pnK3lRAqa4hwoQH0BFJ/uwENFp5GqloyUkb1hNbNIn9PI7822THZ8tvapRtsLH0dt+nIGp2I1LXnLGqQa1Y1aU6qhFjCgydO4ndoM8jJKZQsiTflegK24m+upwErP1uVVCINazv32Kg0evbCB3RLBIwt2Dh1uC/ZHtsEjleMx7JFnxiV/OZqT3wJ9/vRjvYWd+gNyf7eQm/fDlXRSpjBMmkOHA0yuAoA6cz/S9MHR3vInl/bPnUTVtaSOvjE/alOXUYxEI4WDBIc6taLWBk/h4CO9aj4tG/lB4jkN5gKOxz9ilQckjfjnJ22TI0KrhGuFiaoyFbtKV8/RS5iIzXHHA4mdTrMe7/8SqfB9/K8q/d8yeLVw7bf/k3i9WKuaj6/KOdcMYf4LwFEsJxXawSj9GHWhX5tJXGhNsERqAwh/fRUlsOiwuVBJ1bfF05dnRwGRHwzekzSoE7UerSPFk+OObe9lUJf1jHJtTyyMMk0jUhwXCjpeq2qrQH4qqysEtVFB24tq3QdV0MVychkF4cbysnehBsWTRvDVqAyXowpkq5NpGYx7X0LF8F0rdt0GuM5vOMPsf86jWk43vEjlkOv1iIVorZ+hPVDpGPmXAqA4H3DsEiyoyyjNZ3hPpGqKwPz85BS+KHbzwkxmiwbYOM0aRO2ifhE79xjPRkmVt1Kx+7SLWOfm2Iio01twiDiEkG2Et3Jx92qTGihTeKRcHXKgyqfnNOOlDD8a/jgGSRUOfOWT7PBO7ugncRBsXu9uT4s53XEOnrHh6dcbUEfUlGctQXIjbblINtDH88yenu7am9m2ov1Re2p6FNe7g5k03aVF1G45CYkDcAWG8pK8hQqUfuF4leKKklGRCB9tmbI0yurhifvKe71cH1/lwaM1YrSGi9bl9JOkz69fUWpMZi9CZ09ehlsa2yRoSvWPrjQ6Vupqmv9e43+r9plWjfsm6pmL5IV7BJtrfYAEdJ2TyrZ3idRu3OEGTvuCqN0wOFIM7kynh8umuXJAxAZ0ijjjV1IX3+deghb4TeVZKuKYKg8eMUmlZweg7rikj1YY+OkbEduO5EiX5Dl6ZJLbs6aaal+5hHVBUQ+zTdcyQmsxLDkf/CT3/I9fLZmZ6t9f3t8bUaM+XO4+qwkpRGeRFdC5mXt/Ols16F2MTaicPhetJgY0ey22X2bjnqvprG2rFuCRa/QKOq9UpwSC+eNRcR760EvMTNifwgbZAfMLHQcySI8YxDL0Jzv2ZWGTVKPbaLt7NxpzCISpqG+qk5ApqYNOXyU7xN1Th3SltC72WLazHBSnuwb+NcQB4SfFlbRsZdCyjv7jK+N3tQCPGHd6L1ZgCxj9lTLz+Dssk4FjIfE1lc32fyN1/Eut66yCVt6Ct5muzJbsDpS+cikdTImkflLVGiWgZko78fQpqLyffDQ/Na3vSZ1cFSWRjTe8R+J1dR9LN0VtK+8uX6nagEcd+MfnUgu6jRsee3CV/vQZs/cAUHloG/bSu9g6CcT7HoHHaWBHp1BIODzdDXIiXHUc8ZTWic8l+2sKEnETKlcmtKUoQjpTYvtq8yKSVFVfO5ekga+FQ2uQx2/ZllxeObO2qw14xAa9gL/dGLF6qAMu0gK1dzzoLeWnai+p0IyVBPawefxUv7HnLq6IeITKPV091D06b+eZki3r6L9v/29F+OV42Lo7sX1JnWFd/Wdk/7eqhXpB5MS2tdhvvlK1Ao+Y3LcDXq+zAuwf9stT9cDrZr8cY6aaY2UtRPXhCvera9oUqcO1KorO6YOEq5V4tV1IHa3akC4p8LuU0d2VSdCHAGiqcZx0r6/zpBJqDlNdMhb8tGRjtLiUlX97PvyuduBRqafrTyA4OgI7AYPbRbIVXptMjemnWNrvPU0pSHxpsfM+Xhn7Vvp/F+IVnZqX3hb/a2tRtFgilGXwqo6bZpsqPSXZBD4lTbZHRfSTvG6aqRr8BP4zSv+Ws0AzQf0kOdS7rduV7D8209+6llbRbtk4UfoppWfr7kyvkJvzHU7Q3FyoIlvV1GZV3deMxufHu68sVWzVMtLiieS/RFqM1uPULM744J+kktbQcVF3DF3XFAF1xlFzzd7HtvqMBrTA1hUDI9bfIaW2A1otajuHe9B57Zqhng10ZxfL09W7E0DzgVl2jzqXgKeBI57m4yWcsix5RrSuu3ILf3zuvLq1SWJlndLE7hx/hex9Vw6iPppK4qfNOA0qq9C9/17if1dL8OgBZYv8/wu9cq9PTkAtCbBxBCJlLf/scTKliTkc15OVrweYycsllWUfqSQuCnqZCqa+NV/Tkb1ut5v2H5octXvPjxTXK4i1pU47gUDglKWxLSS4oka+NgfJOdhbBKtkj/etHffnImUu72MKdN3D0Uu1PbHQS7NJltFc0lYiROSAqcjp0rqWiie6SItk5SMF3G4+3mp69/S9s72VBh6eiNtzI52EjuUktiug+v5U76PApJwCynROIJppFeCUWCQd3efyVcT8k/Vmp3QvaUlSbcHakt+xb+t2RO1TvF8uD1fHgGsqnT8GVrWjmgJTliWfChC7XtB/BTFr+yRZ0LHZ2K48wHrFNk8ikLcyOOQjVTubx89kSY8bhzAf5oqI9e7t3xv8W46FIlS2oCkCLgNbuFSHcwUTXaO4iqH7qTY3HJT+IsC5SNeL73JKvNR0h0xIlwq6XibtJjs3WuopSo6Mf7aSrZX/rdqDRyyWOnDqUUyXvo4ZmVcEe+JSfh30rM0OiaSXrBR9v9eoBRJMKwTEk0CtGJH+x0gg6EzyZdB8ltU4FlzUCFshPoO7OZnPWp0gE1JKkjxxFUUCexDgZcPmI9UI8Ijx6qRKB7mTdJcX7ib1H4+c5t5obZx0yAUetXMcyY7X0HZj8sHqY3TLI/fVYZplWfoqAoqmLShAGDu2dzvle0UC5wBpJqmLmhLELAUeDH1NQVfai6SYnj3Zh90JpFJSxdVvEvbkZsM+HB76uKhFnoLHoTi4br96bevRklmZX6BE1ErSW2aZzV5BlJ5Yh8pFBWVN+zmwFONeHi5X2sqwrhEb1MnLy5L3znWM2pNTQ3UJzkadVEWaZnSSeEkUf02piQtXx2/xviv2o9Wn/dcY2lUrF2BrrfPqqSWe6W1RuwvWqzRUaQjJblPFHLAdoEwFtZjedk373hlg2wRJ4vSulL2zaiR4xD51tuHdvI9iLFrdWgtSLd1ExB4XryL3+3mhsn1cds8KHcd5ys1ykVTFIO9R/PGSQAXM+y+LlHu2fm3iUXWROl3wwrlakMdQH/dery1Vx3meAWSiTw2VzTN/XZQ1eIJtMK+FzP/KttpAXTfPq1b6SRpTF6E5kjQfqcaCJ/5lKADZhY+K+MnYVjKiXMzSwRWD+f2z8Ud737Wc4EwkQRB4Es/IbMtLH7tB3Bh7StH5dIkJrMWr0U3iP5VyS9FCBpHi6p857iX7AbCyHOI9hrEb6dkm4oynxfZX5v80Nf7KvOXcXFtjmySFVAQBQsb8iUeaaU6N5uz4SXXVVFMtk3lC/jaDfm8jW+HVD309+/DBTQGP6kCnS5J8iu63aJzY/s59keJ4Ubptp3qeVLZZSH4XaanJfKUQPGW8GRXwOHNwYsfSadMWmc1YhUQoo41Mdivg+dR0JvNRcNBPcnacglHiykj2H5vst2autqcklovGzosW2z6ufdnYJpVtDEFlAdVPSkzNZGDwt5ft3yF4UuDoV4ajOmD4+0lxoEenSPrkDj5zUZ1emeGeT6SCj5ficMiUlNWsemn18A76SZPSxi4IdiP7jy/v7wU4Xj5anniWoHQUKluBg++JR1fOlhA8KfD9KJJAj5XbyUHTPmGe0OjEUdNxaLk3fYrt9efx5OCtdJ86vL/X6d17U98qD99xnTzvnOusmSui9sEKeQRde9PfJkfNczNlaybyT+77gdyTgJ2vFIInhTcjW+jm4YzM2AZ+kjdu3Ptmf53o35P5b7U5ebrbUaB7ue8CMscT+11aF5atN7y7+1RNShuHalWIUZ8tkp3z2lx34q0eqUvLiPVrR85Blp4vW/cd304InnhuBHzX+5Pz4PRBOH1xcftJsaF/jQVA7+Kto1NkQlKclJv2k9coL0WbLoNKeXd3npf9FahPAjyqkuOiLbsi9hgq6lzc+ZlmHqzHLf4kg4JKIruuVp/g7gjupUHA4mWu+6uMbbWqetHDimKapI+WS5+0wl308DMi8vIYrQM8Wr0hnaXVFdFXIY7fjaOQIx3V1bPkJBjYz+wbZyRmLWTKC02x6Mi0iMWbyOvDVe8nLQ8yd22UGFmEmtRexnp5JIPK+Kpgidb3UQleF3DkOld2xCk9I4EBY/99VdLvA1W+3G5FMk46/+vzzH74GMFTR+fSvUgqdMDNfT6G/HUnpD4PZTUZ3f8CMBPoWFvovK7ArNpvix3wm6u8JUeCshF0XLqkDj1ludmLqhrq8ICpXc316YZaNbRbtDgdKZUCKIWbyVZfGrX5SJvte4N1saEUQ7x2UITUJl0pr6koBE85348A9Oxs5v88mvxEgahxM4ze7hG7BCANo6M182USrNtBIcXFABLAzFuKRwsHQRBodDV5/H52A0U5+gan8SS/q9T2Kjj8+pyoTcAVH7RCgrq/QKQJbIrFnNDFq+smCR0jpf4oa2A2geY3aE9TM+R6DyItuag61XKdVwEKwZPOS9L7//t7zEIdTedSPlaSDhHffm1UnYImUaL2EdtJkqecDSkRPVU16f7nCq8+XUrnZHiQ1LYXKPY+dbk78u9qXoAqXmaEdJo9+xS7kX2krclJErQbaUTXDiKrHJW3ilAInnRflEZnpcz871gm2W0ou4Okex3ZOEd2pfzuhaUn06XbXnnOkw02jhjP+6xuEFS/ujztuY5VvepjO0bsQqRpUPVQ13l5sC0ETyYvQVnV7xSyOtwkVJM5CCBUumySlkk5ldH41hHEmVCNcmHjlHW/UrNmro4CooitJi7jmgRYVhtB+wvIIBiBY+DUnqVrRwQdn2fbQ/Bk+kKUXqJFtF7FDvr7OG/2aaZt6vymraL2w0tKOlZ5vFrZuH58GwKQbBeV4Rq/wFukKn5/eb9L2vTrEKH+NfEc1DT/dIrytldJx4fgySbjtYDTPyZibE/FTsAWKpZEKdpDmlNwBDGkghYswTGcoOzQ7Ky4kM3nU1vbSVJ9HnV1Hl4zqXWy31J5RAGmFipoq8ZelSJNGqzMASELfAnBkwUmJjShtJMX6WBzV1Mqiu/bGbX3Y4AfJE5ySE4CgFIbr1TtOhQZwVtVgDOgCwbz8Z2p3HNs6u7thAtX0AZJWxXlmLeBiXQbSBxlIp1iOPuZ03CA/1JnBRRJlLoEblSrQc92TDvsNyRNFQdNjMsheGKcyMV/ReI37KAu2nbWCEK1k/dJ84SUUqNp2XLzaoqxVBeNyFWRilW6w8+mIKpqH8iZIvCojoJmy6oST8emVfHpkt5zCJ6k7Al3hhwI5kAR40NIIQdCDqTDgRA86XAtPCfkABwIwRN2g5ADaXIgBE+ajAtPCzkQgifsAyEH0uRACJ40GReeFnIgBE/YB0IOpMmBEDxpMi48LeRACJ6wD4QcSJMDIXjSZFx4WsiBEDxhHwg5kCYHQvCkybjwtJADIXjCPhByIE0OhOBJk3HhaSEHQvCEfSDkQJoc+D88IlgX4QK4xAAAAABJRU5ErkJggg==;fontStyle=1" vertex="1" parent="gmUq8JSCCJDd7Y-n9HPj-10">
          <mxGeometry x="120" y="122" width="92.51" height="80" as="geometry" />
        </mxCell>
        <mxCell id="gmUq8JSCCJDd7Y-n9HPj-13" value="&lt;b&gt;GitHub&lt;/b&gt;" style="dashed=0;outlineConnect=0;html=1;align=center;labelPosition=center;verticalLabelPosition=bottom;verticalAlign=top;shape=mxgraph.weblogos.github" vertex="1" parent="1">
          <mxGeometry x="40" y="301" width="75" height="75" as="geometry" />
        </mxCell>
        <mxCell id="gmUq8JSCCJDd7Y-n9HPj-16" value="" style="endArrow=classic;startArrow=classic;html=1;rounded=0;" edge="1" parent="1" source="gmUq8JSCCJDd7Y-n9HPj-13" target="gmUq8JSCCJDd7Y-n9HPj-7">
          <mxGeometry width="50" height="50" relative="1" as="geometry">
            <mxPoint x="150" y="360" as="sourcePoint" />
            <mxPoint x="210" y="361" as="targetPoint" />
          </mxGeometry>
        </mxCell>
        <mxCell id="gmUq8JSCCJDd7Y-n9HPj-18" value="Webhook Event&lt;div&gt;&lt;b&gt;WORKFLOW_JOB_QUEUED&lt;/b&gt;&lt;/div&gt;" style="text;html=1;align=center;verticalAlign=middle;whiteSpace=wrap;rounded=0;" vertex="1" parent="1">
          <mxGeometry x="140" y="310" width="170" height="30" as="geometry" />
        </mxCell>
      </root>
    </mxGraphModel>
  </diagram>
</mxfile>
